<svg xmlns="http://www.w3.org/2000/svg" viewBox="0 0 64 64" width="64" height="64">
  <defs>
    <linearGradient id="sunGrad" x1="0%" y1="0%" x2="100%" y2="100%">
      <stop offset="0%" stop-color="#ffe394" />
      <stop offset="100%" stop-color="#ffc857" />
    </linearGradient>
    <linearGradient id="cloudGrad" x1="0%" y1="0%" x2="100%" y2="100%">
      <stop offset="0%" stop-color="#ffffff" />
      <stop offset="100%" stop-color="#b0cbe8" />
    </linearGradient>
    <filter id="shadow" x="-10%" y="-10%" width="120%" height="120%">
      <feDropShadow dx="0" dy="2" stdDeviation="2" flood-color="#051239" flood-opacity="0.15" />
    </filter>
  </defs>
  <!-- Sun -->
  <circle cx="38" cy="26" r="11" fill="url(#sunGrad)" filter="url(#shadow)" />
  <!-- Sun Rays -->
  <g stroke="url(#sunGrad)" stroke-width="3" stroke-linecap="round">
    <line x1="38" y1="9" x2="38" y2="13" />
    <line x1="38" y1="39" x2="38" y2="43" />
    <line x1="21" y1="26" x2="25" y2="26" />
    <line x1="51" y1="26" x2="55" y2="26" />
    <line x1="26" y1="14" x2="29" y2="17" />
    <line x1="47" y1="35" x2="50" y2="38" />
    <line x1="26" y1="38" x2="29" y2="35" />
    <line x1="47" y1="17" x2="50" y2="14" />
  </g>
  <!-- Cloud -->
  <path d="M48 46H20a11 11 0 0 1-3-21.6 15 15 0 0 1 28-3.4A9.5 9.5 0 0 1 48 46z" fill="url(#cloudGrad)" filter="url(#shadow)" />
</svg>
